# File created by Blade
# Date/Time:  Tue Apr 07 20:49:23 2015
# Frame Rate: 120.000 fps
#------------------------------------------------------
:FULLY-SPECIFIED
:DEGREES
795
root 0.816543 33.931510 -5.655295 -3.887252 48.211812 -114.452586
Spine -49.989930 -12.406645 34.820302
Head -13.135034 32.368335 36.130951
LeftShoulder -24.993997 37.538884 30.488118
LeftArm 74.643816 -67.870906 -69.539389
LeftForeArm 17.542676 -0.000000 12.229792
LeftHand 6.940181 -0.000000 15.503405
LeftHandThumb1 -26.253704 0.000000 33.147579
RightShoulder -23.447211 -4.002948 -28.816286
RightArm -22.599730 37.700954 19.256551
RightForeArm 57.461946 -0.000000 -2.613139
RightHand 2.621224 0.000000 13.545051
RightHandThumb1 -24.326973 -0.000000 -32.862282
LeftUpLeg -101.581134 44.282359 8.385271
LeftLeg -18.375933 -0.000000 0.000000
LeftFoot 12.290402 11.756064 -13.555505
LeftToeBase -11.736550 -0.000000 0.000000
RightUpLeg 34.535454 18.894557 -16.128034
RightLeg 56.946698 -0.000000 -0.000000
RightFoot 54.946696 10.332223 0.936800
RightToeBase 6.466432 -0.000000 -0.000000
796
root 0.802357 33.931815 -5.645815 -3.932273 48.210102 -114.528799
Spine -49.941960 -12.403406 34.857503
Head -13.219409 32.383021 35.976165
LeftShoulder -25.002587 37.545597 30.458727
LeftArm 74.714235 -67.869457 -69.628387
LeftForeArm 17.433359 -0.000000 12.109499
LeftHand 6.997469 0.000000 15.494570
LeftHandThumb1 -26.253704 0.000000 33.147579
RightShoulder -23.433199 -3.985340 -28.897773
RightArm -22.627146 37.749096 19.255043
RightForeArm 57.437329 0.000000 -2.579338
RightHand 2.584198 -0.000000 13.510393
RightHandThumb1 -24.326973 -0.000000 -32.862282
LeftUpLeg -101.591495 44.291083 8.514595
LeftLeg -18.298206 -0.000000 0.000000
LeftFoot 12.285585 11.846599 -13.219293
LeftToeBase -11.837784 -0.000000 0.000000
RightUpLeg 34.629338 18.944971 -16.078606
RightLeg 56.875823 -0.000000 -0.000000
RightFoot 54.910833 10.347825 0.907149
RightToeBase 6.430648 -0.000000 -0.000000
797
root 0.788763 33.928426 -5.639897 -3.915373 48.214224 -114.541830
Spine -49.911255 -12.403538 34.866653
Head -13.290585 32.412375 35.856277
LeftShoulder -25.026356 37.507087 30.456513
LeftArm 74.500141 -67.815866 -69.431982
LeftForeArm 17.322767 0.000000 12.011286
LeftHand 7.061066 -0.000000 15.505305
LeftHandThumb1 -26.253704 0.000000 33.147579
RightShoulder -23.518820 -4.050892 -28.890505
RightArm -22.336946 37.828853 19.377932
RightForeArm 57.467031 -0.000000 -2.673923
RightHand 2.614840 -0.000000 13.437751
RightHandThumb1 -24.326973 -0.000000 -32.862282
LeftUpLeg -101.626918 44.264341 8.567535
LeftLeg -18.250579 -0.000000 0.000000
LeftFoot 12.244295 11.996273 -12.668738
LeftToeBase -11.771905 -0.000000 0.000000
RightUpLeg 34.718774 19.025200 -16.038960
RightLeg 56.782974 -0.000000 -0.000000
RightFoot 54.891397 10.345182 0.906856
RightToeBase 6.344555 -0.000000 -0.000000
798
root 0.777134 33.923088 -5.633733 -3.924414 48.185275 -114.586003
Spine -49.866105 -12.375806 34.925701
Head -13.337628 32.444746 35.725520
LeftShoulder -25.099216 37.514157 30.387351
LeftArm 74.396263 -67.773748 -69.335870
LeftForeArm 17.283955 -0.000000 11.941520
LeftHand 6.962076 -0.000000 15.608885
LeftHandThumb1 -26.253704 0.000000 33.147579
RightShoulder -23.561807 -4.064190 -28.903500
RightArm -22.068123 37.817389 19.486163
RightForeArm 57.417459 -0.000000 -2.796171
RightHand 2.651505 0.000000 13.396625
RightHandThumb1 -24.326973 -0.000000 -32.862282
LeftUpLeg -101.696280 44.257836 8.590506
LeftLeg -18.205655 -0.000000 0.000000
LeftFoot 12.202555 12.094343 -12.228245
LeftToeBase -11.738362 -0.000000 0.000000
RightUpLeg 34.813138 19.176372 -15.905877
RightLeg 56.681570 -0.000000 -0.000000
RightFoot 54.872085 10.360868 0.872218
RightToeBase 6.382737 -0.000000 -0.000000
799
root 0.768619 33.917048 -5.629282 -3.926092 48.089785 -114.641298
Spine -49.805634 -12.274452 35.020168
Head -13.351693 32.509081 35.583538
LeftShoulder -25.182905 37.521291 30.264596
LeftArm 74.449595 -67.772146 -69.374681
LeftForeArm 17.280975 -0.000000 11.849536
LeftHand 7.045672 -0.000000 15.523956
LeftHandThumb1 -26.253704 0.000000 33.147579
RightShoulder -23.508132 -3.942814 -28.974136
RightArm -22.023662 37.709256 19.431096
RightForeArm 57.289874 -0.000000 -2.854607
RightHand 2.647798 -0.000000 13.314675
RightHandThumb1 -24.326973 -0.000000 -32.862282
LeftUpLeg -101.726127 44.329896 8.664706
LeftLeg -18.184051 -0.000000 0.000000
LeftFoot 12.116474 12.244891 -11.843574
LeftToeBase -11.611967 -0.000000 0.000000
RightUpLeg 34.847444 19.388465 -15.750736
RightLeg 56.592628 -0.000000 -0.000000
RightFoot 54.895025 10.364742 0.816043
RightToeBase 6.364370 -0.000000 -0.000000
800
root 0.761120 33.907746 -5.623297 -3.797664 48.051431 -114.556386
Spine -49.888907 -12.230668 35.006030
Head -13.183034 32.117031 35.629127
LeftShoulder -25.153133 37.667877 30.303494
LeftArm 74.584477 -67.770961 -69.612536
LeftForeArm 17.249966 0.000000 11.842975
LeftHand 7.034280 -0.000000 15.535567
LeftHandThumb1 -26.253704 0.000000 33.147579
RightShoulder -23.294237 -3.854508 -29.025054
RightArm -22.149354 37.560673 19.281800
RightForeArm 57.108629 -0.000000 -2.890748
RightHand 2.560140 -0.000000 13.158662
RightHandThumb1 -24.326973 -0.000000 -32.862282
LeftUpLeg -101.808037 44.338852 8.564281
LeftLeg -18.197480 -0.000000 0.000000
LeftFoot 12.062329 12.374195 -11.376848
LeftToeBase -11.588368 -0.000000 0.000000
RightUpLeg 34.898558 19.562323 -15.661665
RightLeg 56.478889 -0.000000 -0.000000
RightFoot 54.880257 10.405532 0.755090
RightToeBase 6.527887 -0.000000 -0.000000
801
root 0.754407 33.898683 -5.616928 -3.660824 48.029400 -114.499854
Spine -50.001929 -12.174363 35.015559
Head -13.035496 31.838252 35.684990
LeftShoulder -25.071864 37.770300 30.410595
LeftArm 74.543774 -67.771229 -69.737420
LeftForeArm 17.252752 0.000000 11.833254
LeftHand 7.089912 -0.000000 15.667808
LeftHandThumb1 -26.253704 0.000000 33.147579
RightShoulder -23.147460 -3.825298 -29.028930
RightArm -22.133075 37.399282 19.206539
RightForeArm 57.011514 -0.000000 -2.963225
RightHand 2.549746 -0.000000 13.046636
RightHandThumb1 -24.326973 -0.000000 -32.862282
LeftUpLeg -101.888340 44.361421 8.501364
LeftLeg -18.237881 -0.000000 0.000000
LeftFoot 12.067160 12.457009 -10.880226
LeftToeBase -11.586575 -0.000000 0.000000
RightUpLeg 34.911062 19.701598 -15.561001
RightLeg 56.372014 -0.000000 -0.000000
RightFoot 54.914657 10.326149 0.747672
RightToeBase 6.495447 -0.000000 -0.000000
